HIERARCHY
ROOT simHips
{
  OFFSET 6.13146 95.3961 -0.669452
  CHANNELS 6 Xposition Yposition Zposition Zrotation Xrotation Yrotation
  JOINT simSpine
  {
    OFFSET -0.000360269 21.3001 -0.0169217
    CHANNELS 3 Zrotation Xrotation Yrotation
    JOINT simLeftArm
    {
      OFFSET 13.5181 21.3012 -2.3511e-005
      CHANNELS 3 Zrotation Xrotation Yrotation
      JOINT simLeftForeArm
      {
        OFFSET 24.5783 0 -6.3921e-005
        CHANNELS 3 Zrotation Xrotation Yrotation
        JOINT simLeftHand
        {
          OFFSET 24.5783 0 0
          CHANNELS 3 Zrotation Xrotation Yrotation
          End Site
          {
            OFFSET 7.32568 1.52588e-005 0.0169305
          }
        }
      }
    }
    JOINT simHead
    {
      OFFSET 0 27.4458 -0.00488811
      CHANNELS 3 Zrotation Xrotation Yrotation
      End Site
      {
        OFFSET 0 0 0
      }
    }
    JOINT simRightArm
    {
      OFFSET -13.5174 21.3012 -1.52733e-005
      CHANNELS 3 Zrotation Xrotation Yrotation
      JOINT simRightForeArm
      {
        OFFSET -24.5783 -0.000552281 0.000112897
        CHANNELS 3 Zrotation Xrotation Yrotation
        JOINT simRightHand
        {
          OFFSET -24.5783 0 1.19926e-005
          CHANNELS 3 Zrotation Xrotation Yrotation
          End Site
          {
            OFFSET -7.32568 1.52588e-005 0.0169305
          }
        }
      }
    }
  }
  JOINT simRightUpLeg
  {
    OFFSET -8.44614 -9.41038 0.835682
    CHANNELS 3 Zrotation Xrotation Yrotation
    JOINT simRightLeg
    {
      OFFSET -3.23466e-005 -40.9639 0
      CHANNELS 3 Zrotation Xrotation Yrotation
      JOINT simRightFoot
      {
        OFFSET 0 -40.9639 0
        CHANNELS 3 Zrotation Xrotation Yrotation
        End Site
        {
          OFFSET 0.50614 -9.67405 14.6709
        }
      }
    }
  }
  JOINT simLeftUpLeg
  {
    OFFSET 8.44614 -9.41038 0.835681
    CHANNELS 3 Zrotation Xrotation Yrotation
    JOINT simLeftLeg
    {
      OFFSET -0.00018133 -40.964 6.2497e-005
      CHANNELS 3 Zrotation Xrotation Yrotation
      JOINT simLeftFoot
      {
        OFFSET 0 -40.9639 0
        CHANNELS 3 Zrotation Xrotation Yrotation
        End Site
        {
          OFFSET -0.50614 -9.67405 14.6709
        }
      }
    }
  }
}
MOTION
Frames:	9
Frame Time:	0.0333333
-1.04093 97.2698 24.7675 3.56526 14.4485 -36.2534 0.60932 10.68 12.1701 -58.6841 -6.56415 10.244 2.33026e-005 -4.77457e-006 -60.7252 -41.4337 -39.1743 -64.5781 0.255038 -15.5186 4.93788 65.0375 -6.42038 35.8094 1.16068e-007 -8.41599e-006 91.5803 -167.36 -31.406 -148.287 -18.0595 -8.17318 -31.2067 0.00533756 23.8172 0.0232218 25.8898 -14.4657 5.71953 36.8236 -43.511 26.5355 -0.0049347 43.147 -0.0852847 -17.4669 -5.65226 -7.8464 
-1.47269 97.3746 24.9068 3.28066 13.0568 -35.991 0.914087 9.98039 12.0677 -58.7265 -6.74975 10.9838 2.3284e-005 -4.7412e-006 -60.9495 -41.927 -39.3564 -64.8047 0.0153991 -13.9484 4.39533 64.5093 -6.19795 35.9584 -0.000396298 -1.62031e-005 93.0435 -165.613 -30.2152 -146.596 -18.3733 -6.39412 -31.0143 0.00551303 23.4199 0.0231515 25.8513 -14.5452 5.79494 35.2289 -41.9825 25.1196 -0.00593004 42.6553 -0.0846071 -17.6737 -5.73626 -7.93021 
-1.91368 97.4994 25.0605 3.06354 11.6928 -35.729 1.19496 9.157 11.9534 -58.7283 -6.92357 11.7103 2.32731e-005 -4.72153e-006 -61.0814 -42.5492 -39.4928 -65.079 -0.186043 -12.3769 3.91964 64.0635 -5.75521 36.2492 -0.0558311 -2.21502e-005 94.1623 -165.607 -29.6697 -145.745 -18.6367 -4.48452 -30.8886 0.00542865 22.6518 0.0241121 25.8531 -14.4674 5.8566 33.6904 -40.4534 23.7912 -0.00284104 42.1149 -0.0900921 -17.8896 -5.80087 -8.00799 
-2.34902 97.6283 25.2225 2.87587 10.3233 -35.4891 1.47182 8.2667 11.785 -58.7743 -7.12285 12.4985 2.3258e-005 -4.69409e-006 -61.2652 -43.3899 -39.7396 -65.3077 -0.306035 -10.7133 3.65334 63.5929 -5.29812 36.6228 -0.0440204 -2.74604e-005 95.1626 -165.935 -29.2485 -145.312 -18.9043 -2.53391 -30.7761 0.00542208 21.7648 0.0250619 25.8594 -14.3254 5.92331 32.2005 -38.8821 22.5147 3.81252e-005 41.5346 -0.0954598 -18.1081 -5.86059 -8.0544 
-2.7689 97.7532 25.3839 2.69815 8.90997 -35.2958 1.74858 7.39421 11.5618 -58.9705 -7.34978 13.327 2.32377e-005 -4.65694e-006 -61.5135 -44.1336 -40.0716 -65.5909 -0.343276 -8.93662 3.69305 63.1263 -4.873 37.0606 -0.0239545 -3.31891e-005 96.2435 -166.277 -28.7502 -144.997 -19.2212 -0.588881 -30.6334 0.00548299 20.9117 0.025865 25.8679 -14.181 6.00312 30.7418 -37.2315 21.2653 0.00221074 40.9168 -0.10038 -18.3234 -5.91879 -8.04813 
-3.18085 97.8766 25.5283 2.54713 7.50528 -35.1798 2.04961 6.4716 11.3602 -59.3311 -7.50078 14.2179 2.32167e-005 -4.618e-006 -61.7732 -44.5354 -40.1631 -65.9907 -0.49823 -7.01535 3.75734 62.6939 -4.58335 37.3732 0.00162012 -4.04025e-005 97.6078 -166.05 -28.4054 -144.428 -19.5556 1.29119 -30.4427 0.00557776 20.0693 0.026627 25.8647 -14.0379 6.08277 29.3786 -35.5305 20.1117 0.00381452 40.2489 -0.104839 -18.536 -5.96225 -7.98895 
-3.57402 97.9936 25.6619 2.39531 6.14075 -35.1588 2.35929 5.52772 11.179 -59.7369 -7.70449 15.0615 2.32095e-005 -4.60457e-006 -61.8626 -45.214 -40.0746 -66.545 -0.775447 -4.98532 3.78584 62.3176 -4.29229 37.7831 -0.00738163 -4.68867e-005 98.8378 -165.563 -28.1161 -144.083 -19.8637 3.08224 -30.1878 0.00566129 19.253 0.027457 25.8485 -13.9203 6.16967 28.1898 -33.7847 19.1204 0.0051089 39.5513 -0.109143 -18.7612 -5.99397 -7.91503 
-3.9947 98.1014 25.7599 2.16497 4.7849 -35.2449 2.74461 4.69398 11.0518 -60.1825 -7.93597 15.8056 2.32073e-005 -4.6004e-006 -61.8904 -45.9456 -39.9907 -67.0021 -1.35484 -2.97136 3.78846 61.8721 -3.98729 38.2453 -0.0110306 -5.28074e-005 99.9646 -165.382 -27.9159 -143.738 -20.1047 4.83984 -29.8266 0.00569112 18.4838 0.0284631 25.8125 -13.8518 6.26921 27.2165 -31.9178 18.2891 0.00626788 38.8231 -0.113524 -19.0059 -6.0161 -7.85156 
-4.42603 98.1989 25.8173 1.86062 3.45737 -35.4176 3.18543 4.02086 10.971 -60.6653 -8.23004 16.5168 2.31962e-005 -4.57962e-006 -62.0285 -46.5077 -39.995 -67.1836 -1.65221 -0.941382 3.95075 61.4523 -3.81815 38.7999 -0.0136331 -5.8487e-005 101.049 -165.458 -27.5522 -143.769 -20.298 6.52874 -29.3776 0.00562096 17.7966 0.0297541 25.7631 -13.831 6.37576 26.4252 -29.9841 17.5787 0.00733758 38.0722 -0.117998 -19.2569 -6.02634 -7.78038 
